# xmcd
#
# Track frame offsets: 
#        150
#        19892
#        38712
#        71565
#        106182
#
# Disc length: 1906 seconds
#
# Revision: 2
# Processed by: cddbd v1.5.2PL0 Copyright (c) Steve Scherf et al.
# Submitted via: ExactAudioCopyFreeDBPlugin 1.0
#
DISCID=38077005
DTITLE=HARLAN - Land Of Love
DYEAR=1998
DGENRE=Electronic
TTITLE0=Harlan - Gomi 7" Edit
TTITLE1=Harlan - Love To Infinity Radio Edit
TTITLE2=Harlan - Love To Infinity Master Mix
TTITLE3=Harlan - Blue Ikon Mix
TTITLE4=Harlan - Jonathan Peters Dub
EXTD=
EXTT0=
EXTT1=
EXTT2=
EXTT3=
EXTT4=
PLAYORDER=
